<?xml version="1.0" encoding="utf-8"?>
<!-- Generator: Adobe Illustrator 16.0.0, SVG Export Plug-In . SVG Version: 6.00 Build 0)  -->
<!DOCTYPE svg PUBLIC "-//W3C//DTD SVG 1.1//EN" "http://www.w3.org/Graphics/SVG/1.1/DTD/svg11.dtd">
<svg version="1.1" id="Layer_1" xmlns="http://www.w3.org/2000/svg" xmlns:xlink="http://www.w3.org/1999/xlink" x="0px" y="0px"
	 width="386.143px" height="645.797px" viewBox="0 0 386.143 645.797" enable-background="new 0 0 386.143 645.797"
	 xml:space="preserve">
<path fill="#E5E5E5" d="M65.539,365.044c0,0-3.314,7.553-2.377,11.18c1.087,4.213,4.786,11.131,3.671,12.645
	c-2.855,3.875-7.139-2.039-14.685-12.033c0,0-25.086,17.744-28.554,17.744s-4.895-1.632-4.487-5.507
	c0.408-3.875,10.606-9.79,10.606-9.79s-9.994,6.763-13.665,8.362c-2.651,1.153-9.111-1.156-5.507-4.283
	c3.369-2.925,13.869-8.228,13.869-8.228s-11.23,5.312-15.093,6.8c-1.769,0.679-10.534,0.354-4.691-4.486
	c3.002-2.489,14.073-6.73,14.073-6.73s-11.952,6.035-16.316,6.526c-1.217,0.134-4.692-1.526,0-4.896
	c8.518-6.115,34.876-15.165,36.1-21.348C38.483,351,55.953,352.807,65.539,365.044"/>
<path fill="#AAAAAA" d="M84.645,312.25c0,0,16.293,99.114,26.885,106.188c10.591,7.075,23.021-79.945,23.429-96.87
	c0.406-16.928-2.775-61.499-10.454-62.859L84.645,312.25z"/>
<path fill="#AAAAAA" d="M202.479,210.834c0,0,5.233-6.75,18.2-4.828c12.97,1.92,22.527,7.685,22.527,7.685
	s36.632,14.879,68.737,92.228c0,0,25.947,70.13,55.534,68.208l18.665,0.039c0,0-0.911,31.529-52.349,63.299
	c-51.439,31.772-147.943,30.81-168.429,27.447C144.882,461.55,202.479,210.834,202.479,210.834"/>
<path fill="#CBCBCB" d="M181.428,402.362c0,0,28.31-21.508,57.719-25.087c0,0,27.487,158.885,26.922,160.229
	c-0.563,1.341-56.699,15.908-56.699,15.908l-7.546-69.36C201.824,484.052,185.66,419.092,181.428,402.362"/>
<path fill="#1B1B1B" d="M209.37,553.413c0,0,18.764,45.277,21.211,48.541c2.448,3.264,0.709,30.956,2.855,33.448
	c2.489,2.885,3.672,11.83,29.777,10.198c26.106-1.632,25.291-20.396,25.291-20.396s-11.83-22.436-15.909-31.001
	c-4.079-8.566-6.526-56.699-6.526-56.699s-13.567-13.413-19.783-13.063c-3.751,0.214-13.257,9.277-13.257,9.277
	s-12.963-5.596-16.929-3.158C211.106,533.632,209.778,546.478,209.37,553.413"/>
<path fill="#CBCBCB" d="M177.422,402.362c0,0-35.628-22.626-65.035-26.198c0,0-20.17,159.996-19.606,161.341
	c0.565,1.341,56.699,15.908,56.699,15.908l7.504-65.129C156.984,488.284,172.737,420.883,177.422,402.362"/>
<path fill="#1B1B1B" d="M149.48,553.413c0,0-18.764,45.277-21.211,48.541c-2.447,3.264-0.708,30.956-2.855,33.448
	c-2.488,2.885-3.671,11.83-29.777,10.198c-26.106-1.632-25.29-20.396-25.29-20.396s11.829-22.436,15.908-31.001
	c4.079-8.566,6.527-56.699,6.527-56.699s13.567-13.413,19.784-13.063c3.751,0.214,13.257,9.277,13.257,9.277
	s12.961-5.596,16.928-3.158C147.744,533.632,149.072,546.478,149.48,553.413"/>
<path fill="#B7B7B7" d="M229.357,325.877v-44.053l22.436,27.532l25.29,47.676c0,0,16.861-14.401,27.126-16.726
	c0,0-21.619-49.917-24.066-51.956s-46.583-72.608-47.869-70.364c0,0-16.581-5.71-38.607-8.566v-7.955H145.94v5.711
	c0,0-33.449,1.632-38.14,5.303c-4.691,3.671-47.521,79.134-47.521,79.134l-21.793,59.421c0,0,15.296,2.039,27.942,14.889
	l48.919-87.159c0,0,10.372,27.94,6.73,49.151C122.078,327.917,155.526,354.608,229.357,325.877"/>
<path fill="#FFFFFF" d="M278.637,353.952c0,0,1.829,7.45,0.896,11.077c-1.09,4.213-4.788,11.131-3.671,12.645
	c2.854,3.876,7.138-2.039,14.685-12.033c0,0,25.086,17.744,28.554,17.744c3.467,0,4.895-1.632,4.486-5.507
	c-0.407-3.875-10.605-9.79-10.605-9.79s9.994,6.76,13.665,8.362c2.651,1.154,9.108-1.156,5.507-4.283
	c-3.372-2.925-13.869-8.225-13.869-8.225s11.228,5.313,15.093,6.798c1.766,0.679,10.532,0.354,4.691-4.487
	c-3.006-2.489-14.073-6.73-14.073-6.73s11.95,6.035,16.316,6.526c1.214,0.137,4.691-1.526,0-4.895
	c-8.519-6.116-35.902-16.189-37.126-22.376C303.185,338.778,289.315,342.702,278.637,353.952"/>
<path fill="#E5E5E5" d="M259.815,139.329c-0.543-2.722-1.904-5.169-4.079-4.624s-10.063,3.808-11.149,5.981
	c0,0,2.991-54.115,1.359-59.282s-10.605-39.159-72.335-38.616c-61.731,0.545-78.758,32.344-79.092,34.444
	c-0.917,5.737-0.33,42.096-0.114,53.823c-1.957-1.935-5.757-4.019-8.688-3.517c-4.758,0.815-4.566,4.855-4.566,4.855
	s-1.359,5.574,2.447,9.382c3.807,3.805,4.487,6.797,6.391,7.476c1.198,0.429,3.198,0.438,4.521,0.386
	c1.667,19.478,10.654,51.17,51.429,51.827c58.942,0.953,47.726,0,47.726,0s45.211,3.945,50.921-46.91c0,0,4.896,0.545,8.158-1.357
	C256.009,151.292,260.358,142.047,259.815,139.329"/>
<polygon fill="#E5E5E5" points="148.592,242.122 205.155,242.122 216.848,252.454 179.865,290.797 134.45,256.262 "/>
<path fill="#AAAAAA" d="M232.275,217.987c0,0-8.144-2.666-17.161-4.704c-9.016-2.038-16.949-3.23-16.949-3.23v6.778
	c0,0-41.438,2.17-56.372-8.158c0,0-26.378-2.176-33.992,3.807c-7.615,5.983-19.146,26.922-18.873,29.642
	c0.272,2.718,19.688-19.852,19.688-19.852s57.923,8.252,81.31,4.125L232.275,217.987z"/>
<path d="M119.426,115.806c0,0,11.421-4.487,22.843,0C142.269,115.806,133.499,100.713,119.426,115.806"/>
<path d="M198.382,115.806c0,0,11.422-4.487,22.843,0C221.225,115.806,212.455,100.713,198.382,115.806"/>
<path fill="#FFFFFF" d="M150.223,155.781c0,0,3.467-28.758-23.455-28.554c0,0-14.481,0.816-13.665,12.645
	c0,0,2.447,10.402,17.744,15.909C130.848,155.781,142.677,158.636,150.223,155.781"/>
<path fill="#494949" d="M145.069,138.784c0,0,1.547,13.107-13.239,14.23c-14.788,1.12-14.788-14.176-14.788-14.176
	s0.414-5.321,2.895-8.042c3.615-3.973,12.436-2.304,12.436-2.304S145.12,131.953,145.069,138.784"/>
<path d="M142.79,134.671c0.475,0.542,2.335,13.769-9.29,14.38c-11.625,0.612-14.788-9.281-12.034-16.724c0,0,2.015-3.356,3.443-3.56
	C126.337,128.564,136.031,126.958,142.79,134.671"/>
<path fill="#FFFFFF" d="M141.555,137.425c0,0.304,0.917,7.035-3.263,8.055L141.555,137.425z"/>
<path d="M113.104,139.872c0,0-0.208-0.973-0.024-2.707c0.106-0.86,0.321-1.906,0.782-3.048c0.472-1.129,1.202-2.366,2.338-3.41
	c1.107-1.066,2.557-1.958,4.203-2.554c1.641-0.622,3.464-0.962,5.345-1.08c1.883-0.121,3.828-0.061,5.776,0.167
	c1.927,0.237,3.975,0.684,5.854,1.458c1.888,0.77,3.657,1.854,5.169,3.181c1.516,1.324,2.753,2.887,3.743,4.5
	c1.973,3.254,2.89,6.684,3.428,9.592c0.523,2.925,0.545,5.401,0.563,7.116c0.005,0.859-0.041,1.533-0.052,1.992
	c-0.023,0.459-0.006,0.703-0.006,0.703s-0.047-0.241-0.08-0.7c-0.041-0.457-0.1-1.128-0.173-1.982
	c-0.148-1.699-0.473-4.122-1.137-6.947c-0.666-2.814-1.798-6.042-3.745-9.016c-1.92-2.976-4.821-5.574-8.323-6.934
	c-1.747-0.701-3.541-1.138-5.43-1.391c-1.876-0.222-3.73-0.343-5.512-0.282c-1.779,0.07-3.485,0.313-5.028,0.774
	c-1.547,0.459-2.905,1.192-3.97,2.1c-2.15,1.828-3.084,4.18-3.425,5.816C113.05,138.879,113.104,139.872,113.104,139.872"/>
<path fill="#FFFFFF" d="M189.668,155.781c0,0-3.467-28.758,23.454-28.554c0,0,14.481,0.816,13.665,12.645
	c0,0-2.447,10.402-17.743,15.909C209.044,155.781,197.214,158.636,189.668,155.781"/>
<path fill="#494949" d="M194.824,138.784c0,0-1.549,13.107,13.237,14.23c14.787,1.12,14.787-14.176,14.787-14.176
	s-0.414-5.321-2.894-8.042c-3.615-3.973-12.437-2.304-12.437-2.304S194.773,131.953,194.824,138.784"/>
<path d="M197.103,134.671c-0.475,0.542-2.336,13.769,9.289,14.38c11.626,0.612,14.787-9.281,12.034-16.724
	c0,0-2.015-3.356-3.442-3.56C213.556,128.564,203.861,126.958,197.103,134.671"/>
<path fill="#FFFFFF" d="M217.695,139.726c0-0.304,0.917-7.035-3.263-8.055L217.695,139.726z"/>
<path d="M226.787,139.872c0,0,0.055-0.993-0.296-2.653c-0.341-1.636-1.274-3.988-3.426-5.816c-1.064-0.908-2.422-1.641-3.969-2.1
	c-1.545-0.462-3.249-0.704-5.029-0.774c-1.781-0.061-3.635,0.061-5.512,0.282c-1.89,0.253-3.682,0.69-5.43,1.391
	c-3.501,1.36-6.402,3.958-8.322,6.934c-1.947,2.974-3.08,6.202-3.745,9.016c-0.664,2.825-0.989,5.249-1.138,6.947
	c-0.073,0.854-0.132,1.525-0.173,1.982c-0.032,0.459-0.08,0.7-0.08,0.7s0.018-0.244-0.005-0.703
	c-0.011-0.459-0.057-1.133-0.052-1.992c0.018-1.715,0.039-4.191,0.563-7.116c0.538-2.908,1.455-6.338,3.427-9.592
	c0.991-1.612,2.228-3.176,3.743-4.5c1.514-1.326,3.282-2.411,5.169-3.181c1.88-0.774,3.928-1.221,5.854-1.458
	c1.948-0.228,3.894-0.288,5.777-0.167c1.88,0.118,3.703,0.458,5.345,1.08c1.646,0.596,3.094,1.488,4.203,2.554
	c1.134,1.043,1.865,2.28,2.337,3.41c0.461,1.143,0.676,2.188,0.783,3.048C226.998,138.899,226.787,139.872,226.787,139.872"/>
<path d="M126.346,97.45v6.935c0,0,60.421-6.935,84.462-44.87l28.937,47.726v17.132l6.854-4.42l-1.009,20.736l11.151-5.983
	c0,0,8.701-26.242,10.333-30.321s0-40.791-2.04-48.133c-2.039-7.342-17.54-48.133-50.58-37.936c0,0-8.362-30.186-75.159-13.053
	c0,0-6.296,1.632-21.249-1.632l3.492,13.053c0,0-31.833,5.711-39.619,19.172l9.204-0.408c0,0-19.845,20.395-19.029,39.975
	c0.816,19.58-0.272,49.493,10.063,56.972c0,0,0.794-5.032,4.758-4.487c3.964,0.543,5.297,0.044,8.496,3.148
	C98.608,134.162,126.346,97.45,126.346,97.45"/>
<path fill="#1B1B1B" d="M177.349,402.362c0.515,0.331,4.079,0,4.079,0s30.797-20.191,57.719-25.087c0,0-7.954-48.95-9.79-51.397
	c0,0-26.718,9.382-49.357,11.625c0,0-51.804-2.243-58.331-8.362c0,0-11.83,39.773-9.994,49.155
	C111.676,378.295,152.059,386.045,177.349,402.362"/>
<path fill="#E5E5E5" d="M121.946,327.917c0,0,3.425,2.189,4.57,2.744c1.335,0.644,5.352,2.043,5.352,2.043l-1.941,8.378
	l-10.768-3.075L121.946,327.917z"/>
<path fill="#E5E5E5" d="M136.64,333.564c0,0,5.652,0.81,7.266,1.026c1.845,0.251,6.519,0.742,6.519,0.742v9.826l-14.889-2.753
	L136.64,333.564z"/>
<path fill="#E5E5E5" d="M155.526,336.024v9.954l12.441,1.743c0,0,1.359,9.341,12.714,9.312
	c12.661-0.028,12.168-10.386,12.168-10.386l8.975-1.485v-11.429l-9.103,1.908c0,0-1.368-7.026-12.109-7.026
	c0,0-11.162-0.007-12.997,7.651L155.526,336.024z"/>
<polygon fill="#E5E5E5" points="207.138,332.445 208.04,343.935 221.479,341.079 218.894,329.208 "/>
<path fill="#E5E5E5" d="M223.448,327.917l2.643,12.04l6.185-1.932c0,0-0.638-4.461-0.985-5.918c-0.374-1.59-1.933-6.229-1.933-6.229
	L223.448,327.917z"/>
<path fill="#5F5F5F" d="M156.984,187.91c0,0,0.119,0.056,0.344,0.161c0.203,0.127,0.545,0.332,0.923,0.59
	c0.76,0.539,1.901,1.215,3.283,1.944c0.699,0.352,1.462,0.704,2.293,1.01c0.404,0.178,0.839,0.309,1.287,0.424
	c0.45,0.105,0.886,0.293,1.359,0.363c0.468,0.08,0.946,0.159,1.428,0.242c0.481,0.092,0.98,0.051,1.475,0.096
	c0.993,0.123,1.999-0.083,3.002-0.148c0.989-0.193,1.991-0.395,2.944-0.695c0.92-0.405,1.896-0.639,2.748-1.098
	c0.858-0.453,1.691-0.889,2.479-1.303c0.748-0.498,1.454-0.969,2.106-1.402c0.672-0.415,1.253-0.845,1.75-1.256
	c0.507-0.401,0.95-0.749,1.315-1.034c0.736-0.571,1.177-0.885,1.177-0.885s-0.334,0.413-0.957,1.112
	c-0.313,0.351-0.695,0.774-1.132,1.26c-0.22,0.244-0.455,0.502-0.701,0.776c-0.263,0.258-0.57,0.495-0.875,0.761
	c-0.624,0.523-1.298,1.087-2.012,1.683c-0.776,0.517-1.62,1.039-2.5,1.568c-0.882,0.521-1.901,0.879-2.896,1.31
	c-1.027,0.346-2.123,0.593-3.208,0.814c-1.114,0.063-2.224,0.253-3.32,0.11c-1.105-0.015-2.156-0.285-3.167-0.523
	c-0.99-0.301-1.949-0.621-2.782-1.063c-0.859-0.396-1.614-0.865-2.291-1.324c-1.346-0.921-2.33-1.852-3.003-2.497
	c-0.346-0.322-0.575-0.575-0.762-0.757C157.09,187.995,156.984,187.91,156.984,187.91"/>
<path fill="#5A5A5A" d="M163.836,167.42c0,0,0.632-0.617,1.799-1.255c0.595-0.284,1.294-0.648,2.115-0.845
	c0.81-0.232,1.723-0.332,2.635-0.271c0.909,0.075,1.819,0.316,2.567,0.743c0.401,0.159,0.705,0.456,1.015,0.685
	c0.321,0.22,0.556,0.503,0.783,0.75c0.218,0.253,0.449,0.459,0.571,0.706c0.139,0.231,0.259,0.432,0.358,0.596
	c0.188,0.333,0.296,0.523,0.296,0.523s-0.154-0.156-0.423-0.427c-0.128-0.137-0.285-0.304-0.463-0.494
	c-0.163-0.204-0.429-0.354-0.658-0.572c-0.242-0.204-0.489-0.438-0.813-0.599c-0.313-0.174-0.616-0.397-0.981-0.524
	c-0.353-0.156-0.718-0.301-1.114-0.379c-0.382-0.126-0.792-0.156-1.198-0.194c-1.636-0.142-3.299,0.309-4.503,0.72
	C164.619,167.021,163.836,167.42,163.836,167.42"/>
</svg>
