<?xml version="1.0" encoding="utf-8"?>
<!-- Generator: Adobe Illustrator 16.0.0, SVG Export Plug-In . SVG Version: 6.00 Build 0)  -->
<!DOCTYPE svg PUBLIC "-//W3C//DTD SVG 1.1//EN" "http://www.w3.org/Graphics/SVG/1.1/DTD/svg11.dtd">
<svg version="1.1" id="Layer_1" xmlns="http://www.w3.org/2000/svg" xmlns:xlink="http://www.w3.org/1999/xlink" x="0px" y="0px"
	 width="325.525px" height="349.26px" viewBox="0 0 325.525 349.26" enable-background="new 0 0 325.525 349.26"
	 xml:space="preserve">
<path fill="#1C1A1D" d="M326.163,284.608c0.667-4.673-13.35-6.008-13.35-6.008c17.354-64.079,12.692-103.607,0-134.833
	c-7.9-19.439-36.204-49.328-36.204-49.328L285.727,0l-75.108,63.487c0,0-24.395-5.113-48.657-5.159
	c-24.919-0.048-46.37,5.143-46.37,5.143L40.537,7.121l9.625,91.898c0,0-25.425,28.472-35.407,53.041
	c-14.407,35.448-0.977,131.212-0.977,131.212s-9.345-6.675-13.35,5.341c-4.005,12.015,21.36,50.062,21.36,50.062l25.847,4.97
	l-5.154-26.33c6.675-2.002,100.123,21.36,100.123,21.36c6.675-16.02,20.487-22.695,20.487-22.695
	c9.142-0.667,24.233,24.03,24.233,24.03l96.118-20.024l-4.375,23.659c0,0,22.397,0.37,25.734-0.298
	c3.338-0.667,10.013-15.352,10.013-15.352C326.83,309.304,326.163,284.608,326.163,284.608 M132.592,324.954
	c0,0-46.057,0-68.751-20.024c0,0-10.68-24.029,0-43.387C63.84,261.542,152.617,260.875,132.592,324.954 M265.619,305.299
	c-22.694,20.025-68.751,20.025-68.751,20.025c-20.024-64.08,68.751-63.412,68.751-63.412
	C276.298,281.27,265.619,305.299,265.619,305.299"/>
</svg>
