<?xml version="1.0" encoding="utf-8"?>
<!-- Generator: Adobe Illustrator 16.0.0, SVG Export Plug-In . SVG Version: 6.00 Build 0)  -->
<!DOCTYPE svg PUBLIC "-//W3C//DTD SVG 1.1//EN" "http://www.w3.org/Graphics/SVG/1.1/DTD/svg11.dtd">
<svg version="1.1" id="Layer_1" xmlns="http://www.w3.org/2000/svg" xmlns:xlink="http://www.w3.org/1999/xlink" x="0px" y="0px"
	 width="325.525px" height="544.319px" viewBox="0 0 325.525 544.319" enable-background="new 0 0 325.525 544.319"
	 xml:space="preserve">
<path fill="#7E8C88" d="M175.111,246.105c0,0,34.681-26.352,70.711-30.732c0,0,33.672,194.636,32.98,196.283
	c-0.695,1.647-69.459,19.486-69.459,19.486l-9.245-84.964C200.098,346.179,180.293,266.601,175.111,246.105"/>
<path fill="#A6853E" d="M209.343,431.143c0,0,22.986,55.468,25.984,59.465c2.998,3.998,0.867,37.924,3.498,40.977
	c3.045,3.537,4.497,14.491,36.479,12.492c31.981-1.998,30.981-24.985,30.981-24.985s-14.491-27.483-19.488-37.978
	s-7.995-69.457-7.995-69.457s-16.623-16.428-24.236-15.998c-4.599,0.261-16.24,11.36-16.24,11.36s-15.881-6.852-20.737-3.865
	C211.466,406.917,209.842,422.65,209.343,431.143"/>
<path fill="#7E8C88" d="M170.202,246.105c0,0-43.645-27.718-79.671-32.098c0,0-24.709,196.002-24.017,197.649
	c0.691,1.647,69.459,19.486,69.459,19.486l9.191-79.779C145.165,351.364,164.463,268.795,170.202,246.105"/>
<path fill="#A6853E" d="M135.973,431.143c0,0-22.987,55.468-25.985,59.465c-2.999,3.998-0.868,37.924-3.498,40.977
	c-3.049,3.537-4.498,14.491-36.479,12.492c-31.981-1.998-30.982-24.985-30.982-24.985s14.492-27.483,19.489-37.978
	s7.995-69.457,7.995-69.457s16.62-16.428,24.236-15.998c4.595,0.261,16.24,11.36,16.24,11.36s15.878-6.852,20.738-3.865
	C133.846,406.917,135.473,422.65,135.973,431.143"/>
<path fill="#363D3D" d="M233.829,152.411V98.442l27.483,33.73l30.982,58.403c0,0,20.655-17.646,33.23-20.488
	c0,0-26.484-61.151-29.482-63.65c-2.999-2.499-57.068-88.948-58.642-86.199c0,0-20.313-6.996-47.299-10.494V0h-58.465v6.996
	c0,0-40.976,1.999-46.723,6.496c-5.747,4.497-58.216,96.943-58.216,96.943L0,183.225c0,0,18.739,2.499,34.23,18.239l59.929-106.77
	c0,0,12.704,34.23,8.245,60.215C102.404,154.909,143.38,187.604,233.829,152.411"/>
<polygon points="134.885,49.803 204.178,49.803 218.501,62.459 173.196,109.432 117.561,67.125 "/>
<path fill="#A6853E" d="M170.114,246.105c0.631,0.406,4.997,0,4.997,0s37.73-24.735,70.711-30.732c0,0-9.744-59.965-11.993-62.963
	c0,0-32.73,11.493-60.467,14.242c0,0-63.462-2.749-71.458-10.244c0,0-14.491,48.721-12.243,60.214
	C89.661,216.623,139.132,226.117,170.114,246.105"/>
<path d="M102.242,154.909c0,0,4.196,2.682,5.599,3.357c1.635,0.789,6.556,2.506,6.556,2.506l-2.379,10.259l-13.19-3.767
	L102.242,154.909z"/>
<path d="M120.242,161.827c0,0,6.925,0.992,8.901,1.257c2.26,0.304,7.985,0.906,7.985,0.906v12.04l-18.239-3.373L120.242,161.827z"/>
<path d="M143.38,164.841v12.188l15.241,2.136c0,0,1.665,11.442,15.575,11.411c15.509-0.035,14.907-12.723,14.907-12.723
	l10.995-1.823v-14l-11.153,2.338c0,0-1.675-8.608-14.833-8.608c0,0-13.675-0.008-15.924,9.377L143.38,164.841z"/>
<polygon points="206.606,160.457 207.711,174.53 224.174,171.032 221.008,156.49 "/>
<path d="M226.586,154.909l3.236,14.749l7.578-2.37c0,0-0.781-5.462-1.206-7.25c-0.461-1.944-2.37-7.628-2.37-7.628L226.586,154.909z
	"/>
</svg>
