<?xml version="1.0" encoding="utf-8"?>
<!-- Generator: Adobe Illustrator 16.0.0, SVG Export Plug-In . SVG Version: 6.00 Build 0)  -->
<!DOCTYPE svg PUBLIC "-//W3C//DTD SVG 1.1//EN" "http://www.w3.org/Graphics/SVG/1.1/DTD/svg11.dtd">
<svg version="1.1" id="Layer_1" xmlns="http://www.w3.org/2000/svg" xmlns:xlink="http://www.w3.org/1999/xlink" x="0px" y="0px"
	 width="325.525px" height="544.319px" viewBox="0 0 325.525 544.319" enable-background="new 0 0 325.525 544.319"
	 xml:space="preserve">
<path fill="#F69695" d="M175.959,244.777c0,0,34.495-26.209,70.329-30.566c0,0,33.49,193.584,32.803,195.223
	c-0.689,1.639-69.084,19.384-69.084,19.384l-9.195-84.507C200.812,344.311,181.116,265.162,175.959,244.777"/>
<path fill="#C75353" d="M210.007,428.818c0,0,22.861,55.167,25.844,59.144c2.982,3.976,0.861,37.719,3.479,40.755
	c3.031,3.519,4.474,14.414,36.282,12.426c31.809-1.987,30.814-24.852,30.814-24.852s-14.414-27.335-19.383-37.771
	c-4.971-10.438-7.952-69.085-7.952-69.085s-16.531-16.339-24.105-15.911c-4.571,0.259-16.152,11.298-16.152,11.298
	s-15.794-6.814-20.626-3.844C212.121,404.72,210.503,420.369,210.007,428.818"/>
<path fill="#F69695" d="M171.079,244.777c0,0-43.41-27.569-79.242-31.925c0,0-24.576,194.944-23.887,196.583
	c0.687,1.639,69.084,19.384,69.084,19.384l9.142-79.351C146.176,349.467,165.371,267.344,171.079,244.777"/>
<path fill="#C75353" d="M137.034,428.818c0,0-22.863,55.167-25.844,59.144c-2.982,3.976-0.863,37.719-3.479,40.755
	c-3.033,3.519-4.473,14.414-36.282,12.426c-31.808-1.987-30.814-24.852-30.814-24.852s14.413-27.335,19.383-37.771
	c4.97-10.438,7.952-69.085,7.952-69.085s16.53-16.339,24.104-15.911c4.57,0.259,16.153,11.298,16.153,11.298
	s15.793-6.814,20.626-3.844C134.918,404.72,136.537,420.369,137.034,428.818"/>
<path fill="#CB6363" d="M234.36,151.587V97.911l27.336,33.548l30.814,58.088c0,0,20.544-17.551,33.051-20.377
	c0,0-26.342-60.821-29.323-63.307c-2.982-2.485-56.761-88.468-58.325-85.734c0,0-20.202-6.958-47.043-10.438V0h-58.149v6.958
	c0,0-40.755,1.988-46.47,6.46c-5.715,4.473-57.901,96.42-57.901,96.42L1.795,182.235c0,0,18.638,2.485,34.045,18.141L95.445,94.183
	c0,0,12.636,34.045,8.201,59.89C103.646,154.073,144.4,186.592,234.36,151.587"/>
<polygon fill="#1B5F45" points="135.952,49.534 204.87,49.534 219.116,62.122 174.056,108.841 118.721,66.762 "/>
<path fill="#C75353" d="M170.99,244.777c0.627,0.404,4.97,0,4.97,0s37.526-24.602,70.329-30.566c0,0-9.691-59.641-11.929-62.624
	c0,0-32.554,11.432-60.141,14.165c0,0-63.118-2.733-71.07-10.188c0,0-14.414,48.458-12.177,59.889
	C90.972,215.453,140.176,224.896,170.99,244.777"/>
<path fill="#1B5F45" d="M103.485,154.073c0,0,4.173,2.667,5.569,3.339c1.626,0.784,6.521,2.493,6.521,2.493l-2.366,10.204
	l-13.12-3.747L103.485,154.073z"/>
<path fill="#1B5F45" d="M121.388,160.953c0,0,6.887,0.986,8.853,1.25c2.248,0.303,7.942,0.901,7.942,0.901v11.974l-18.141-3.354
	L121.388,160.953z"/>
<path fill="#1B5F45" d="M144.4,163.951v12.122l15.159,2.124c0,0,1.656,11.38,15.492,11.35c15.423-0.035,14.824-12.655,14.824-12.655
	l10.937-1.813v-13.924l-11.092,2.326c0,0-1.666-8.562-14.755-8.562c0,0-13.6-0.007-15.836,9.327L144.4,163.951z"/>
<polygon fill="#1B5F45" points="207.285,159.59 208.383,173.588 224.759,170.109 221.609,155.645 "/>
<path fill="#1B5F45" d="M227.158,154.073l3.221,14.669l7.534-2.357c0,0-0.776-5.432-1.2-7.21c-0.455-1.934-2.354-7.587-2.354-7.587
	L227.158,154.073z"/>
</svg>
