<?xml version="1.0" encoding="utf-8"?>
<!-- Generator: Adobe Illustrator 16.0.0, SVG Export Plug-In . SVG Version: 6.00 Build 0)  -->
<!DOCTYPE svg PUBLIC "-//W3C//DTD SVG 1.1//EN" "http://www.w3.org/Graphics/SVG/1.1/DTD/svg11.dtd">
<svg version="1.1" id="Layer_1" xmlns="http://www.w3.org/2000/svg" xmlns:xlink="http://www.w3.org/1999/xlink" x="0px" y="0px"
	 width="325.525px" height="544.319px" viewBox="0 0 325.525 544.319" enable-background="new 0 0 325.525 544.319"
	 xml:space="preserve">
<path fill="#91C5B1" d="M175.886,246.132c0,0,34.685-26.354,70.716-30.735c0,0,33.675,194.656,32.983,196.304
	c-0.691,1.648-69.466,19.491-69.466,19.491l-9.245-84.975C200.875,346.217,181.067,266.63,175.886,246.132"/>
<path fill="#1B5F45" d="M210.12,431.192c0,0,22.989,55.474,25.987,59.472c2.999,3.998,0.867,37.927,3.499,40.979
	c3.047,3.538,4.497,14.494,36.481,12.495s30.985-24.988,30.985-24.988s-14.493-27.487-19.491-37.982
	c-4.997-10.495-7.996-69.467-7.996-69.467s-16.621-16.43-24.237-16c-4.598,0.262-16.242,11.362-16.242,11.362
	s-15.881-6.853-20.74-3.865C212.246,406.961,210.62,422.696,210.12,431.192"/>
<path fill="#91C5B1" d="M170.976,246.132c0,0-43.65-27.721-79.68-32.102c0,0-24.712,196.023-24.02,197.67
	c0.691,1.648,69.466,19.491,69.466,19.491l9.193-79.79C145.936,351.402,165.237,268.824,170.976,246.132"/>
<path fill="#1B5F45" d="M136.743,431.192c0,0-22.989,55.474-25.987,59.472s-0.868,37.927-3.499,40.979
	c-3.049,3.538-4.498,14.494-36.482,12.495C38.79,542.139,39.79,519.15,39.79,519.15s14.493-27.487,19.49-37.982
	c4.998-10.495,7.997-69.467,7.997-69.467s16.622-16.43,24.238-16c4.595,0.262,16.242,11.362,16.242,11.362s15.88-6.853,20.74-3.865
	C134.616,406.961,136.243,422.696,136.743,431.192"/>
<path fill="#3CB989" d="M234.608,152.427V98.453l27.486,33.734l30.984,58.41c0,0,20.658-17.648,33.234-20.49
	c0,0-26.487-61.158-29.485-63.657c-2.999-2.499-57.073-88.957-58.647-86.208c0,0-20.314-6.997-47.301-10.495V0h-58.473v6.997
	c0,0-40.98,1.999-46.728,6.497c-5.747,4.498-58.222,96.953-58.222,96.953L0.755,183.244c0,0,18.741,2.499,34.233,18.241
	L94.924,94.705c0,0,12.706,34.233,8.246,60.221C103.17,154.926,144.15,187.625,234.608,152.427"/>
<polygon fill="#E9BA52" points="135.655,49.808 204.955,49.808 219.28,62.466 173.969,109.444 118.329,67.132 "/>
<path fill="#1B5F45" d="M170.888,246.132c0.629,0.406,4.998,0,4.998,0s37.732-24.738,70.716-30.735c0,0-9.745-59.972-11.994-62.97
	c0,0-32.734,11.495-60.471,14.243c0,0-63.471-2.749-71.467-10.245c0,0-14.493,48.727-12.244,60.221
	C90.426,216.646,139.902,226.142,170.888,246.132"/>
<path fill="#E9BA52" d="M103.008,154.926c0,0,4.196,2.682,5.6,3.358c1.635,0.789,6.557,2.506,6.557,2.506l-2.379,10.261
	l-13.192-3.768L103.008,154.926z"/>
<path fill="#E9BA52" d="M121.01,161.844c0,0,6.925,0.992,8.902,1.257c2.261,0.304,7.986,0.906,7.986,0.906v12.041l-18.241-3.374
	L121.01,161.844z"/>
<path fill="#E9BA52" d="M144.15,164.858v12.189l15.243,2.136c0,0,1.665,11.444,15.575,11.413
	c15.513-0.035,14.911-12.725,14.911-12.725l10.995-1.823v-14.001l-11.155,2.339c0,0-1.675-8.609-14.833-8.609
	c0,0-13.677-0.008-15.925,9.378L144.15,164.858z"/>
<polygon fill="#E9BA52" points="207.382,160.474 208.488,174.549 224.955,171.051 221.787,156.507 "/>
<path fill="#E9BA52" d="M227.366,154.926l3.238,14.75l7.576-2.37c0,0-0.78-5.462-1.206-7.25c-0.459-1.944-2.368-7.629-2.368-7.629
	L227.366,154.926z"/>
</svg>
